<?xml version="1.0" encoding="UTF-8" standalone="no"?>
<svg width="76px" height="43px" viewBox="0 0 76 43" version="1.1" xmlns="http://www.w3.org/2000/svg" xmlns:xlink="http://www.w3.org/1999/xlink">
    <!-- Generator: Sketch 3.6.1 (26313) - http://www.bohemiancoding.com/sketch -->
    <title>Shape</title>
    <desc>Created with Sketch.</desc>
    <defs></defs>
    <g id="Page-1" stroke="none" stroke-width="1" fill="none" fill-rule="evenodd">
        <g id="Vector---Drawn-Arrows-by-DragonArt" transform="translate(-397.000000, -743.000000)" fill="#48447D">
            <g id="Group">
                <path d="M434.347,765.6 C440.165,767.027 446.974,768.088 453.587,768.09 C457.933,768.088 462.192,767.622 466.045,766.504 C466.05,766.522 466.061,766.539 466.066,766.557 L466.546,766.42 C466.541,766.402 466.531,766.385 466.525,766.367 C466.576,766.351 466.628,766.34 466.677,766.324 L466.528,765.847 C466.467,765.866 466.404,765.88 466.343,765.9 C464.839,762.472 458.803,759.415 455.786,757.195 C455.763,757.177 455.739,757.16 455.716,757.142 L455.716,757.142 C455.714,757.142 455.713,757.14 455.712,757.14 L455.413,757.54 C457.923,759.429 462.646,763.03 465.312,766.059 L465.689,765.73 L465.687,765.728 C464.356,764.218 462.542,762.584 460.745,761.088 C463.009,762.646 465.109,764.349 465.861,766.036 C462.079,767.127 457.881,767.587 453.586,767.587 C447.025,767.587 440.254,766.534 434.464,765.113 C425.752,763.002 407.824,755.508 407.892,744.276 C407.892,743.934 407.91,743.589 407.941,743.24 L407.446,743.194 L407.443,743.192 C407.41,743.555 407.39,743.918 407.392,744.276 C407.459,756.066 425.583,763.422 434.347,765.6 L434.347,765.6 Z M455.127,757.639 L455.127,757.639 C455.125,757.638 455.125,757.639 455.125,757.639 L455.127,757.639 L455.127,757.639 Z M470.398,764.181 C466.993,761.387 463.71,757.819 459.803,755.842 C459.005,755.231 458.215,754.635 457.443,754.067 L457.235,754.352 L457.034,754.204 C456.461,754.98 455.889,755.759 455.316,756.538 C455.119,756.806 454.92,757.075 454.723,757.343 L455.126,757.639 C455.323,757.37 455.522,757.103 455.719,756.833 C456.084,756.341 456.448,755.847 456.811,755.352 C456.991,755.108 457.17,754.865 457.349,754.621 C457.538,754.76 457.728,754.9 457.918,755.043 C457.906,755.039 457.895,755.034 457.883,755.03 L457.725,755.503 C458.338,755.71 458.936,755.965 459.522,756.258 C463.135,759.031 466.938,762.151 470.199,764.66 C470.86,765.198 471.528,765.709 472.208,766.176 C472.209,766.178 472.21,766.178 472.211,766.179 L472.212,766.179 C472.214,766.18 472.216,766.182 472.218,766.184 L472.508,765.777 C471.837,765.281 471.131,764.746 470.398,764.181 L470.398,764.181 Z M462.914,783.371 L463.405,783.462 C464.296,778.633 468.286,772.236 470.949,767.611 C469.558,773.209 465.16,778.621 463.396,783.901 C462.443,783.199 461.491,782.5 460.539,781.797 L460.538,781.798 C460.538,781.797 460.538,781.797 460.537,781.797 L460.243,782.201 C460.243,782.201 460.244,782.201 460.244,782.202 C460.277,782.228 460.865,782.761 461.478,783.327 C460.892,783.047 460.321,782.764 459.819,782.47 C462.954,778.199 465.534,774.426 467.354,769.703 C467.446,769.576 467.539,769.451 467.631,769.328 L467.432,769.178 L467.355,768.942 C462.884,770.397 457.626,771.003 452.281,771.003 C445.707,771.003 439.004,770.091 433.487,768.743 C422.966,766.204 400.589,759.714 400.169,746.18 L399.672,746.197 C399.743,747.903 400.141,749.491 400.794,750.975 C400.478,750.525 400.155,750.073 399.818,749.621 C399.577,748.809 399.28,747.943 398.856,746.996 L398.401,747.202 C398.595,747.631 398.761,748.045 398.909,748.445 C398.742,748.238 398.571,748.031 398.397,747.824 L397.891,747.229 L397.956,748.008 C399.179,761.368 416.519,767.089 427.999,769.989 C428.292,770.087 428.585,770.182 428.879,770.278 C435.42,772.405 443.292,773.821 450.964,773.821 C453.605,773.821 456.221,773.653 458.751,773.288 C459.999,773.215 461.241,773.114 462.475,772.988 C462.386,773.092 462.306,773.19 462.248,773.272 L462.539,773.536 C462.45,773.733 462.359,773.931 462.268,774.13 C460.683,776.48 459.737,778.541 459.171,780.991 C459.023,781.361 458.884,781.723 458.757,782.077 L458.935,782.159 C458.849,782.647 458.776,783.153 458.712,783.681 L458.436,783.639 L458.684,783.93 C458.679,783.975 458.674,784.022 458.668,784.067 L458.641,784.311 L458.885,784.342 C458.942,784.35 459.003,784.358 459.068,784.366 C459.735,785.06 460.38,785.262 461.018,785.262 L461.064,785.262 C461.572,785.259 462.078,785.17 462.673,785.17 L462.673,784.67 C462.027,784.67 461.508,784.762 461.064,784.762 C460.688,784.755 460.363,784.707 460.008,784.494 C460.528,784.559 461.077,784.617 461.499,784.617 C461.601,784.619 461.696,784.615 461.781,784.609 L461.819,784.115 C461.265,783.992 459.801,783.836 459.208,783.754 C459.249,783.418 459.295,783.094 459.344,782.775 C460.389,783.424 461.778,783.968 462.78,784.55 L463.018,784.243 C463.091,784.297 463.164,784.35 463.237,784.404 C463.203,784.518 463.162,784.632 463.131,784.745 L463.614,784.879 C465.214,779.025 470.759,772.825 471.738,766.18 L471.273,766.023 C468.704,770.668 463.941,777.881 462.914,783.371 L462.914,783.371 Z M463.107,776.871 C463.974,775.268 464.861,773.618 465.782,772.096 C464.992,773.754 464.097,775.319 463.107,776.871 L463.107,776.871 Z M398.549,748.797 C398.83,749.145 399.101,749.496 399.364,749.848 C400.025,752.114 400.291,754.047 401.814,756.209 C400.114,754.057 398.946,751.601 398.549,748.797 L398.549,748.797 Z M402.825,756.701 C401.167,754.732 400.73,752.996 400.199,750.994 C403.021,754.98 405.209,759.002 410,762.052 C407.304,760.704 404.751,758.998 402.825,756.701 L402.825,756.701 Z M406.449,760.57 C407.775,761.468 409.192,762.236 410.628,762.911 C414.338,764.653 417.998,766.263 421.748,767.725 C416.458,766.063 410.844,763.777 406.449,760.57 L406.449,760.57 Z M430.099,769.994 C429.497,769.851 428.873,769.699 428.232,769.539 C424.313,768.234 420.562,766.771 416.835,765.164 C420.556,766.453 424.525,767.463 427.908,768.812 C429.817,769.572 431.785,770.233 433.797,770.798 C432.551,770.555 431.318,770.285 430.099,769.994 L430.099,769.994 Z M436.898,771.86 C438.444,772.109 440.005,772.32 441.577,772.49 C444.049,772.881 446.555,773.146 449.068,773.294 C444.957,773.171 440.819,772.656 436.898,771.86 L436.898,771.86 Z M458.698,772.791 C457.344,772.871 455.985,772.916 454.623,772.93 C456.769,772.836 458.913,772.659 461.049,772.388 C460.275,772.543 459.491,772.677 458.698,772.791 L458.698,772.791 Z M451.022,772.508 C447.876,772.508 444.741,772.33 441.646,771.995 C436.943,771.25 432.367,770.051 428.091,768.349 C422.561,766.146 415.581,764.846 410.696,761.894 C407.94,760.235 406.042,758.248 404.397,756.105 C411.717,763.486 425.731,767.341 433.367,769.227 C438.923,770.582 445.659,771.501 452.28,771.501 C457.385,771.501 462.414,770.944 466.795,769.626 C466.458,770.101 466.127,770.601 465.801,771.118 C460.93,772.07 455.962,772.508 451.022,772.508 L451.022,772.508 Z M459.355,782.705 C459.362,782.664 459.37,782.625 459.376,782.582 L459.414,782.611 L459.355,782.705 L459.355,782.705 Z M459.536,781.689 C461.011,778.872 462.086,775.263 463.557,773.177 C463.575,773.153 463.593,773.128 463.611,773.104 L463.61,773.103 C463.61,773.103 463.611,773.103 463.611,773.102 L463.361,772.919 C463.365,772.91 463.369,772.901 463.373,772.892 C463.446,772.884 463.519,772.875 463.592,772.867 L464.259,772.791 L463.707,772.412 C463.678,772.392 463.649,772.375 463.62,772.358 C463.631,772.337 463.641,772.316 463.649,772.295 C464.245,772.135 464.824,771.949 465.403,771.762 C463.268,775.276 461.339,779.424 459.465,782.098 C459.488,781.963 459.509,781.822 459.536,781.689 L459.536,781.689 Z M401.601,745.822 L401.607,745.724 C402.941,745.621 404.279,745.259 405.546,744.65 C406.096,744.564 406.645,744.444 407.184,744.259 L407.02,743.785 C406.943,743.813 406.864,743.839 406.786,743.864 L406.566,743.513 L406.564,743.513 C406.181,743.755 405.789,743.975 405.388,744.17 C403.541,744.441 401.565,744.349 399.806,745.248 L399.07,745.629 L399.579,745.684 C399.047,745.901 398.54,746.205 398.065,746.612 L398.388,746.992 C398.799,746.643 399.228,746.388 399.671,746.195 C400.232,745.952 400.817,745.819 401.441,745.817 C401.499,745.818 401.548,745.818 401.601,745.822 L401.601,745.822 Z M403.595,744.869 C402.769,745.111 401.932,745.248 401.104,745.269 C401.892,745.042 402.733,744.951 403.595,744.869 L403.595,744.869 Z M463.407,783.463 L463.405,783.462 L463.405,783.463 L463.407,783.463 L463.407,783.463 Z" id="Shape"></path>
            </g>
        </g>
    </g>
</svg>